<svg xmlns="http://www.w3.org/2000/svg" xmlns:xlink="http://www.w3.org/1999/xlink" width="1em" height="1em" viewBox="0 0 38 38" version="1.1"><title>Twitter</title><defs><path d="M32,13.3675611 C31.1169538,13.7691311 30.1679798,14.0405351 29.1719521,14.1625994 C30.1886097,13.537695 30.9692966,12.5482181 31.3369472,11.3692535 C30.385603,11.9477986 29.3318117,12.3680022 28.2102491,12.5944873 C27.3120158,11.613202 26.0323494,11 24.6161747,11 C21.8968067,11 19.6921321,13.2606199 19.6921321,16.0489247 C19.6921321,16.4446435 19.7357621,16.8300102 19.8196861,17.1995337 C15.7274224,16.9889818 12.0992867,14.9788818 9.67075606,11.9242139 C9.24692198,12.6699223 9.00410403,13.5372449 9.00410403,14.462539 C9.00410403,16.2141976 9.87345551,17.7596252 11.194645,18.6650253 C10.3874465,18.6388301 9.62826731,18.4117149 8.96433666,18.0335497 C8.96398552,18.0546139 8.96398552,18.0757681 8.96398552,18.0970123 C8.96398552,20.5433391 10.6612532,22.5840453 12.9137715,23.0478175 C12.5005596,23.1632205 12.0655766,23.2248828 11.61646,23.2248828 C11.2991989,23.2248828 10.9907166,23.1932864 10.690135,23.1343247 C11.3166685,25.140284 13.1350817,26.6000144 15.289718,26.6407925 C13.6045649,27.994932 11.4814441,28.8021227 9.17458575,28.8021227 C8.77717546,28.8021227 8.38520794,28.7782679 8,28.7316386 C10.1790409,30.1641836 12.7672556,31 15.5478986,31 C24.6046746,31 29.5572478,23.306439 29.5572478,16.6344012 C29.5572478,16.4154777 29.5525074,16.1977244 29.5430264,15.9812313 C30.5049928,15.2693696 31.3398442,14.3800826 32,13.3675611" id="path-1"/></defs><g id="Symbols" stroke="none" stroke-width="1" fill="none" fill-rule="evenodd"><g id="1440-Footer" transform="translate(-1271.000000, -51.000000)"><g id="Group" transform="translate(1270.000000, 50.000000)"><circle id="Oval" stroke="#FFFFFF" cx="20" cy="20" r="18.5"/><mask id="mask-2" fill="white"><use xlink:href="#path-1"/></mask><use id="Twitter" fill="#FFFFFF" xlink:href="#path-1"/></g></g></g></svg>
