<svg width="1em" height="1em" viewBox="0 0 22 22" xmlns="http://www.w3.org/2000/svg" xmlns:xlink="http://www.w3.org/1999/xlink"><defs><path d="M13.969 4a9.903 9.903 0 0 1 7.049 2.92 9.903 9.903 0 0 1 2.92 7.049 9.894 9.894 0 0 1-2.184 6.228l3.924 3.925a1.1 1.1 0 0 1-1.556 1.556l-3.924-3.925a9.893 9.893 0 0 1-6.23 2.184 9.904 9.904 0 0 1-7.048-2.92A9.903 9.903 0 0 1 4 13.97a9.903 9.903 0 0 1 2.92-7.05A9.903 9.903 0 0 1 13.969 4Zm0 2.063c-4.36 0-7.906 3.546-7.906 7.906 0 4.36 3.546 7.906 7.906 7.906 4.36 0 7.906-3.547 7.906-7.906 0-4.36-3.547-7.906-7.906-7.906Z" id="search"/></defs><use fill="#54178E" xlink:href="#search" transform="translate(-4 -4)" fill-rule="evenodd"/></svg>

